<mxfile host="app.diagrams.net" agent="Mozilla/5.0 (Windows NT 10.0; Win64; x64) AppleWebKit/537.36 (KHTML, like Gecko) Chrome/129.0.0.0 Safari/537.36 Edg/129.0.0.0" version="24.7.17">
  <diagram name="Sayfa -1" id="lgxPtOzGvuMElFocteaN">
    <mxGraphModel dx="2164" dy="965" grid="1" gridSize="10" guides="1" tooltips="1" connect="1" arrows="1" fold="1" page="1" pageScale="1" pageWidth="827" pageHeight="1169" math="0" shadow="0">
      <root>
        <mxCell id="0" />
        <mxCell id="1" parent="0" />
        <mxCell id="JNwbIqZ043KwwSwPnHp_-7" value="Telefon" style="rounded=1;whiteSpace=wrap;html=1;rotation=0;labelPosition=center;verticalLabelPosition=top;align=center;verticalAlign=bottom;labelBackgroundColor=#ffffff;labelBorderColor=none;fillStyle=auto;glass=1;" vertex="1" parent="1">
          <mxGeometry x="80" y="40" width="140" height="270" as="geometry" />
        </mxCell>
        <mxCell id="JNwbIqZ043KwwSwPnHp_-8" value="" style="rounded=0;whiteSpace=wrap;html=1;" vertex="1" parent="1">
          <mxGeometry x="142.5" y="310" width="15" height="30" as="geometry" />
        </mxCell>
        <mxCell id="JNwbIqZ043KwwSwPnHp_-9" value="" style="rounded=1;whiteSpace=wrap;html=1;glass=1;" vertex="1" parent="1">
          <mxGeometry x="90" y="50" width="120" height="250" as="geometry" />
        </mxCell>
        <mxCell id="JNwbIqZ043KwwSwPnHp_-10" value="" style="ellipse;whiteSpace=wrap;html=1;aspect=fixed;opacity=30;" vertex="1" parent="1">
          <mxGeometry x="145" y="60" width="10" height="10" as="geometry" />
        </mxCell>
        <mxCell id="JNwbIqZ043KwwSwPnHp_-11" value="" style="curved=1;endArrow=classic;html=1;rounded=0;entryX=0.5;entryY=1;entryDx=0;entryDy=0;" edge="1" parent="1" target="JNwbIqZ043KwwSwPnHp_-8">
          <mxGeometry width="50" height="50" relative="1" as="geometry">
            <mxPoint x="240" y="600" as="sourcePoint" />
            <mxPoint x="200" y="420" as="targetPoint" />
            <Array as="points">
              <mxPoint x="250" y="410" />
              <mxPoint x="150" y="420" />
            </Array>
          </mxGeometry>
        </mxCell>
        <mxCell id="JNwbIqZ043KwwSwPnHp_-12" value="Powerbank" style="rounded=1;whiteSpace=wrap;html=1;labelPosition=center;verticalLabelPosition=top;align=center;verticalAlign=bottom;" vertex="1" parent="1">
          <mxGeometry x="260" y="110" width="120" height="230" as="geometry" />
        </mxCell>
        <mxCell id="JNwbIqZ043KwwSwPnHp_-14" value="" style="curved=1;endArrow=classic;html=1;rounded=0;entryX=0.5;entryY=1;entryDx=0;entryDy=0;" edge="1" parent="1" target="JNwbIqZ043KwwSwPnHp_-12">
          <mxGeometry width="50" height="50" relative="1" as="geometry">
            <mxPoint x="240" y="600" as="sourcePoint" />
            <mxPoint x="380" y="510" as="targetPoint" />
            <Array as="points">
              <mxPoint x="240" y="510" />
              <mxPoint x="230" y="410" />
              <mxPoint x="320" y="420" />
            </Array>
          </mxGeometry>
        </mxCell>
        <mxCell id="JNwbIqZ043KwwSwPnHp_-15" value="Devre" style="swimlane;startSize=0;fillColor=#FFFFFF;swimlaneFillColor=default;labelPosition=right;verticalLabelPosition=middle;align=left;verticalAlign=middle;" vertex="1" parent="1">
          <mxGeometry x="145" y="570" width="200" height="200" as="geometry" />
        </mxCell>
      </root>
    </mxGraphModel>
  </diagram>
</mxfile>
